<svg xmlns="http://www.w3.org/2000/svg" xmlns:xlink="http://www.w3.org/1999/xlink" contentStyleType="text/css" height="375px" preserveAspectRatio="none" style="width:757px;height:375px;background:#FFFFFF;" version="1.1" viewBox="0 0 757 375" width="757px" zoomAndPan="magnify"><defs/><g><!--class Analyzer--><g id="elem_Analyzer"><rect codeLine="1" fill="#F1F1F1" height="64.2969" id="Analyzer" rx="2.5" ry="2.5" style="stroke:#181818;stroke-width:0.5;" width="220.2568" x="175" y="7"/><ellipse cx="250.4175" cy="23" fill="#ADD1B2" rx="11" ry="11" style="stroke:#181818;stroke-width:1;"/><path d="M253.3862,28.6406 Q252.8081,28.9375 252.1675,29.0781 Q251.5269,29.2344 250.8237,29.2344 Q248.3237,29.2344 246.9956,27.5938 Q245.6831,25.9375 245.6831,22.8125 Q245.6831,19.6875 246.9956,18.0313 Q248.3237,16.375 250.8237,16.375 Q251.5269,16.375 252.1675,16.5313 Q252.8237,16.6875 253.3862,16.9844 L253.3862,19.7031 Q252.7612,19.125 252.1675,18.8594 Q251.5737,18.5781 250.9487,18.5781 Q249.605,18.5781 248.9175,19.6563 Q248.23,20.7188 248.23,22.8125 Q248.23,24.9063 248.9175,25.9844 Q249.605,27.0469 250.9487,27.0469 Q251.5737,27.0469 252.1675,26.7813 Q252.7612,26.5 253.3862,25.9219 L253.3862,28.6406 Z " fill="#000000"/><text fill="#000000" font-family="sans-serif" font-size="14" lengthAdjust="spacing" textLength="60.9219" x="270.9175" y="27.8467">Analyzer</text><line style="stroke:#181818;stroke-width:0.5;" x1="176" x2="394.2568" y1="39" y2="39"/><line style="stroke:#181818;stroke-width:0.5;" x1="176" x2="394.2568" y1="47" y2="47"/><ellipse cx="186" cy="60.6484" fill="#84BE84" rx="3" ry="3" style="stroke:#038048;stroke-width:1;"/><text fill="#000000" font-family="sans-serif" font-size="14" lengthAdjust="spacing" textLength="194.2568" x="195" y="63.9951">analyze(Program p): Report</text></g><!--class Program--><g id="elem_Program"><rect codeLine="5" fill="#F1F1F1" height="96.8906" id="Program" rx="2.5" ry="2.5" style="stroke:#181818;stroke-width:0.5;" width="155.7188" x="7" y="131"/><ellipse cx="50.8431" cy="147" fill="#ADD1B2" rx="11" ry="11" style="stroke:#181818;stroke-width:1;"/><path d="M53.8118,152.6406 Q53.2337,152.9375 52.5931,153.0781 Q51.9524,153.2344 51.2493,153.2344 Q48.7493,153.2344 47.4212,151.5938 Q46.1087,149.9375 46.1087,146.8125 Q46.1087,143.6875 47.4212,142.0313 Q48.7493,140.375 51.2493,140.375 Q51.9524,140.375 52.5931,140.5313 Q53.2493,140.6875 53.8118,140.9844 L53.8118,143.7031 Q53.1868,143.125 52.5931,142.8594 Q51.9993,142.5781 51.3743,142.5781 Q50.0306,142.5781 49.3431,143.6563 Q48.6556,144.7188 48.6556,146.8125 Q48.6556,148.9063 49.3431,149.9844 Q50.0306,151.0469 51.3743,151.0469 Q51.9993,151.0469 52.5931,150.7813 Q53.1868,150.5 53.8118,149.9219 L53.8118,152.6406 Z " fill="#000000"/><text fill="#000000" font-family="sans-serif" font-size="14" lengthAdjust="spacing" textLength="59.623" x="71.2526" y="151.8467">Program</text><line style="stroke:#181818;stroke-width:0.5;" x1="8" x2="161.7188" y1="163" y2="163"/><ellipse cx="18" cy="176.6484" fill="none" rx="3" ry="3" style="stroke:#038048;stroke-width:1;"/><text fill="#000000" font-family="sans-serif" font-size="14" lengthAdjust="spacing" textLength="90.6514" x="27" y="179.9951">name: String</text><ellipse cx="18" cy="192.9453" fill="none" rx="3" ry="3" style="stroke:#038048;stroke-width:1;"/><text fill="#000000" font-family="sans-serif" font-size="14" lengthAdjust="spacing" textLength="127.6338" x="27" y="196.292">behaviorLogs: List</text><line style="stroke:#181818;stroke-width:0.5;" x1="8" x2="161.7188" y1="203.5938" y2="203.5938"/><ellipse cx="18" cy="217.2422" fill="#84BE84" rx="3" ry="3" style="stroke:#038048;stroke-width:1;"/><text fill="#000000" font-family="sans-serif" font-size="14" lengthAdjust="spacing" textLength="129.7188" x="27" y="220.5889">getBehavior(): List</text></g><!--class Report--><g id="elem_Report"><rect codeLine="11" fill="#F1F1F1" height="80.5938" id="Report" rx="2.5" ry="2.5" style="stroke:#181818;stroke-width:0.5;" width="173.916" x="198" y="139"/><ellipse cx="257.189" cy="155" fill="#ADD1B2" rx="11" ry="11" style="stroke:#181818;stroke-width:1;"/><path d="M260.1577,160.6406 Q259.5796,160.9375 258.939,161.0781 Q258.2983,161.2344 257.5952,161.2344 Q255.0952,161.2344 253.7671,159.5938 Q252.4546,157.9375 252.4546,154.8125 Q252.4546,151.6875 253.7671,150.0313 Q255.0952,148.375 257.5952,148.375 Q258.2983,148.375 258.939,148.5313 Q259.5952,148.6875 260.1577,148.9844 L260.1577,151.7031 Q259.5327,151.125 258.939,150.8594 Q258.3452,150.5781 257.7202,150.5781 Q256.3765,150.5781 255.689,151.6563 Q255.0015,152.7188 255.0015,154.8125 Q255.0015,156.9063 255.689,157.9844 Q256.3765,159.0469 257.7202,159.0469 Q258.3452,159.0469 258.939,158.7813 Q259.5327,158.5 260.1577,157.9219 L260.1577,160.6406 Z " fill="#000000"/><text fill="#000000" font-family="sans-serif" font-size="14" lengthAdjust="spacing" textLength="47.0381" x="277.689" y="159.8467">Report</text><line style="stroke:#181818;stroke-width:0.5;" x1="199" x2="370.916" y1="171" y2="171"/><ellipse cx="209" cy="184.6484" fill="none" rx="3" ry="3" style="stroke:#038048;stroke-width:1;"/><text fill="#000000" font-family="sans-serif" font-size="14" lengthAdjust="spacing" textLength="141.7979" x="218" y="187.9951">isMalicious: Boolean</text><ellipse cx="209" cy="200.9453" fill="none" rx="3" ry="3" style="stroke:#038048;stroke-width:1;"/><text fill="#000000" font-family="sans-serif" font-size="14" lengthAdjust="spacing" textLength="147.916" x="218" y="204.292">threatsDetected: List</text><line style="stroke:#181818;stroke-width:0.5;" x1="199" x2="370.916" y1="211.5938" y2="211.5938"/></g><!--class Rule--><g id="elem_Rule"><rect codeLine="16" fill="#F1F1F1" height="80.5938" id="Rule" rx="2.5" ry="2.5" style="stroke:#181818;stroke-width:0.5;" width="216.7295" x="407.5" y="139"/><ellipse cx="496.063" cy="155" fill="#A9DCDF" rx="11" ry="11" style="stroke:#181818;stroke-width:1;"/><path d="M496.1724,150.3438 L495.0161,155.4219 L497.3442,155.4219 L496.1724,150.3438 Z M494.688,148.1094 L497.6724,148.1094 L501.0317,160.5 L498.5786,160.5 L497.813,157.4375 L494.5317,157.4375 L493.7817,160.5 L491.3442,160.5 L494.688,148.1094 Z " fill="#000000"/><text fill="#000000" font-family="sans-serif" font-size="14" font-style="italic" lengthAdjust="spacing" textLength="31.1035" x="516.563" y="159.8467">Rule</text><line style="stroke:#181818;stroke-width:0.5;" x1="408.5" x2="623.2295" y1="171" y2="171"/><ellipse cx="418.5" cy="184.6484" fill="none" rx="3" ry="3" style="stroke:#038048;stroke-width:1;"/><text fill="#000000" font-family="sans-serif" font-size="14" lengthAdjust="spacing" textLength="128.7891" x="427.5" y="187.9951">description: String</text><line style="stroke:#181818;stroke-width:0.5;" x1="408.5" x2="623.2295" y1="195.2969" y2="195.2969"/><ellipse cx="418.5" cy="208.9453" fill="#84BE84" rx="3" ry="3" style="stroke:#038048;stroke-width:1;"/><text fill="#000000" font-family="sans-serif" font-size="14" lengthAdjust="spacing" textLength="190.7295" x="427.5" y="212.292">check(Program p): Boolean</text></g><!--class SignatureBasedRule--><g id="elem_SignatureBasedRule"><rect codeLine="21" fill="#F1F1F1" height="80.5938" id="SignatureBasedRule" rx="2.5" ry="2.5" style="stroke:#181818;stroke-width:0.5;" width="216.7295" x="281.5" y="288"/><ellipse cx="315.7608" cy="304" fill="#ADD1B2" rx="11" ry="11" style="stroke:#181818;stroke-width:1;"/><path d="M318.7295,309.6406 Q318.1514,309.9375 317.5108,310.0781 Q316.8702,310.2344 316.167,310.2344 Q313.667,310.2344 312.3389,308.5938 Q311.0264,306.9375 311.0264,303.8125 Q311.0264,300.6875 312.3389,299.0313 Q313.667,297.375 316.167,297.375 Q316.8702,297.375 317.5108,297.5313 Q318.167,297.6875 318.7295,297.9844 L318.7295,300.7031 Q318.1045,300.125 317.5108,299.8594 Q316.917,299.5781 316.292,299.5781 Q314.9483,299.5781 314.2608,300.6563 Q313.5733,301.7188 313.5733,303.8125 Q313.5733,305.9063 314.2608,306.9844 Q314.9483,308.0469 316.292,308.0469 Q316.917,308.0469 317.5108,307.7813 Q318.1045,307.5 318.7295,306.9219 L318.7295,309.6406 Z " fill="#000000"/><text fill="#000000" font-family="sans-serif" font-size="14" lengthAdjust="spacing" textLength="141.9277" x="334.041" y="308.8467">SignatureBasedRule</text><line style="stroke:#181818;stroke-width:0.5;" x1="282.5" x2="497.2295" y1="320" y2="320"/><ellipse cx="292.5" cy="333.6484" fill="none" rx="3" ry="3" style="stroke:#038048;stroke-width:1;"/><text fill="#000000" font-family="sans-serif" font-size="14" lengthAdjust="spacing" textLength="107.1875" x="301.5" y="336.9951">signatures: List</text><line style="stroke:#181818;stroke-width:0.5;" x1="282.5" x2="497.2295" y1="344.2969" y2="344.2969"/><ellipse cx="292.5" cy="357.9453" fill="#84BE84" rx="3" ry="3" style="stroke:#038048;stroke-width:1;"/><text fill="#000000" font-family="sans-serif" font-size="14" lengthAdjust="spacing" textLength="190.7295" x="301.5" y="361.292">check(Program p): Boolean</text></g><!--class BehaviorBasedRule--><g id="elem_BehaviorBasedRule"><rect codeLine="26" fill="#F1F1F1" height="80.5938" id="BehaviorBasedRule" rx="2.5" ry="2.5" style="stroke:#181818;stroke-width:0.5;" width="216.7295" x="533.5" y="288"/><ellipse cx="570.3171" cy="304" fill="#ADD1B2" rx="11" ry="11" style="stroke:#181818;stroke-width:1;"/><path d="M573.2858,309.6406 Q572.7077,309.9375 572.0671,310.0781 Q571.4265,310.2344 570.7233,310.2344 Q568.2233,310.2344 566.8952,308.5938 Q565.5827,306.9375 565.5827,303.8125 Q565.5827,300.6875 566.8952,299.0313 Q568.2233,297.375 570.7233,297.375 Q571.4265,297.375 572.0671,297.5313 Q572.7233,297.6875 573.2858,297.9844 L573.2858,300.7031 Q572.6608,300.125 572.0671,299.8594 Q571.4733,299.5781 570.8483,299.5781 Q569.5046,299.5781 568.8171,300.6563 Q568.1296,301.7188 568.1296,303.8125 Q568.1296,305.9063 568.8171,306.9844 Q569.5046,308.0469 570.8483,308.0469 Q571.4733,308.0469 572.0671,307.7813 Q572.6608,307.5 573.2858,306.9219 L573.2858,309.6406 Z " fill="#000000"/><text fill="#000000" font-family="sans-serif" font-size="14" lengthAdjust="spacing" textLength="136.2471" x="589.1653" y="308.8467">BehaviorBasedRule</text><line style="stroke:#181818;stroke-width:0.5;" x1="534.5" x2="749.2295" y1="320" y2="320"/><ellipse cx="544.5" cy="333.6484" fill="none" rx="3" ry="3" style="stroke:#038048;stroke-width:1;"/><text fill="#000000" font-family="sans-serif" font-size="14" lengthAdjust="spacing" textLength="153.624" x="553.5" y="336.9951">behaviorPatterns: List</text><line style="stroke:#181818;stroke-width:0.5;" x1="534.5" x2="749.2295" y1="344.2969" y2="344.2969"/><ellipse cx="544.5" cy="357.9453" fill="#84BE84" rx="3" ry="3" style="stroke:#038048;stroke-width:1;"/><text fill="#000000" font-family="sans-serif" font-size="14" lengthAdjust="spacing" textLength="190.7295" x="553.5" y="361.292">check(Program p): Boolean</text></g><!--link Analyzer to Program--><g id="link_Analyzer_Program"><path codeLine="31" d="M240.12,71.08 C214.66,88.71 187.212,107.7131 158.632,127.5131 " fill="none" id="Analyzer-to-Program" style="stroke:#181818;stroke-width:1;"/><polygon fill="#181818" points="153.7,130.93,163.376,129.0927,157.81,128.0826,158.8201,122.5167,153.7,130.93" style="stroke:#181818;stroke-width:1;"/></g><!--link Analyzer to Report--><g id="link_Analyzer_Report"><path codeLine="32" d="M285,71.08 C285,91.1 285,111.31 285,132.82 " fill="none" id="Analyzer-to-Report" style="stroke:#181818;stroke-width:1;"/><polygon fill="#181818" points="285,138.82,289,129.82,285,133.82,281,129.82,285,138.82" style="stroke:#181818;stroke-width:1;"/></g><!--link Analyzer to Rule--><g id="link_Analyzer_Rule"><path codeLine="33" d="M336.84,71.08 C370.23,91.1 408.7935,114.2256 444.6835,135.7356 " fill="none" id="Analyzer-to-Rule" style="stroke:#181818;stroke-width:1;"/><polygon fill="#181818" points="449.83,138.82,444.1666,130.7624,445.5413,136.2496,440.054,137.6243,449.83,138.82" style="stroke:#181818;stroke-width:1;"/></g><!--reverse link Rule to SignatureBasedRule--><g id="link_Rule_SignatureBasedRule"><path codeLine="34" d="M470.1858,233.9466 C452.1858,254.9466 441.88,266.97 423.91,287.94 " fill="none" id="Rule-backto-SignatureBasedRule" style="stroke:#181818;stroke-width:1;"/><polygon fill="none" points="481.9,220.28,465.6302,230.0419,474.7413,237.8514,481.9,220.28" style="stroke:#181818;stroke-width:1;"/></g><!--reverse link Rule to BehaviorBasedRule--><g id="link_Rule_BehaviorBasedRule"><path codeLine="35" d="M561.8142,233.9466 C579.8142,254.9466 590.12,266.97 608.09,287.94 " fill="none" id="Rule-backto-BehaviorBasedRule" style="stroke:#181818;stroke-width:1;"/><polygon fill="none" points="550.1,220.28,557.2587,237.8514,566.3698,230.0419,550.1,220.28" style="stroke:#181818;stroke-width:1;"/></g><!--SRC=[ZP71QiCm38RlVWeVMqPU88p2meuTbFK9L4SuOguT96MmhNttUccSDco77lLB-gHVSW54x4k4yFMDR7_CauLhiDfnyWn7swzh-uvzOZLdOzpOK7A_zH6EMDkzCaMVmmDsy4c9jybBRRSacaMFsapwQZsfC-mA7raaRn38KHfoRvDIG8XPreuHL5vHqIcsDm0SH1cSseaq11mvBOfZwfLIl5lDTUW-5hxAY7cNFVa8EZ0s8DZEF2dopT83i69voIe7se4gSdoGEB-egZRb_4jn-j5IoqFDEFdvL5N_kBjB_jds0W00]--></g></svg>