<svg xmlns="http://www.w3.org/2000/svg" xmlns:xlink="http://www.w3.org/1999/xlink" contentStyleType="text/css" height="375px" preserveAspectRatio="none" style="width:907px;height:375px;background:#FFFFFF;" version="1.1" viewBox="0 0 907 375" width="907px" zoomAndPan="magnify"><defs/><g><!--class Analyzer--><g id="elem_Analyzer"><rect codeLine="1" fill="#F1F1F1" height="64.2969" id="Analyzer" rx="2.5" ry="2.5" style="stroke:#181818;stroke-width:0.5;" width="220.2568" x="272.5" y="7"/><ellipse cx="347.9175" cy="23" fill="#ADD1B2" rx="11" ry="11" style="stroke:#181818;stroke-width:1;"/><path d="M350.8862,28.6406 Q350.3081,28.9375 349.6675,29.0781 Q349.0269,29.2344 348.3237,29.2344 Q345.8237,29.2344 344.4956,27.5938 Q343.1831,25.9375 343.1831,22.8125 Q343.1831,19.6875 344.4956,18.0313 Q345.8237,16.375 348.3237,16.375 Q349.0269,16.375 349.6675,16.5313 Q350.3237,16.6875 350.8862,16.9844 L350.8862,19.7031 Q350.2612,19.125 349.6675,18.8594 Q349.0737,18.5781 348.4487,18.5781 Q347.105,18.5781 346.4175,19.6563 Q345.73,20.7188 345.73,22.8125 Q345.73,24.9063 346.4175,25.9844 Q347.105,27.0469 348.4487,27.0469 Q349.0737,27.0469 349.6675,26.7813 Q350.2612,26.5 350.8862,25.9219 L350.8862,28.6406 Z " fill="#000000"/><text fill="#000000" font-family="sans-serif" font-size="14" lengthAdjust="spacing" textLength="60.9219" x="368.4175" y="27.8467">Analyzer</text><line style="stroke:#181818;stroke-width:0.5;" x1="273.5" x2="491.7568" y1="39" y2="39"/><line style="stroke:#181818;stroke-width:0.5;" x1="273.5" x2="491.7568" y1="47" y2="47"/><ellipse cx="283.5" cy="60.6484" fill="#84BE84" rx="3" ry="3" style="stroke:#038048;stroke-width:1;"/><text fill="#000000" font-family="sans-serif" font-size="14" lengthAdjust="spacing" textLength="194.2568" x="292.5" y="63.9951">analyze(Program p): Report</text></g><!--class Program--><g id="elem_Program"><rect codeLine="5" fill="#F1F1F1" height="96.8906" id="Program" rx="2.5" ry="2.5" style="stroke:#181818;stroke-width:0.5;" width="220.9609" x="7" y="131"/><ellipse cx="83.4189" cy="147" fill="#ADD1B2" rx="11" ry="11" style="stroke:#181818;stroke-width:1;"/><path d="M86.3877,152.6406 Q85.8096,152.9375 85.1689,153.0781 Q84.5283,153.2344 83.8252,153.2344 Q81.3252,153.2344 79.9971,151.5938 Q78.6846,149.9375 78.6846,146.8125 Q78.6846,143.6875 79.9971,142.0313 Q81.3252,140.375 83.8252,140.375 Q84.5283,140.375 85.1689,140.5313 Q85.8252,140.6875 86.3877,140.9844 L86.3877,143.7031 Q85.7627,143.125 85.1689,142.8594 Q84.5752,142.5781 83.9502,142.5781 Q82.6064,142.5781 81.9189,143.6563 Q81.2314,144.7188 81.2314,146.8125 Q81.2314,148.9063 81.9189,149.9844 Q82.6064,151.0469 83.9502,151.0469 Q84.5752,151.0469 85.1689,150.7813 Q85.7627,150.5 86.3877,149.9219 L86.3877,152.6406 Z " fill="#000000"/><text fill="#000000" font-family="sans-serif" font-size="14" lengthAdjust="spacing" textLength="59.623" x="103.9189" y="151.8467">Program</text><line style="stroke:#181818;stroke-width:0.5;" x1="8" x2="226.9609" y1="163" y2="163"/><ellipse cx="18" cy="176.6484" fill="none" rx="3" ry="3" style="stroke:#038048;stroke-width:1;"/><text fill="#000000" font-family="sans-serif" font-size="14" lengthAdjust="spacing" textLength="90.6514" x="27" y="179.9951">name: String</text><ellipse cx="18" cy="192.9453" fill="none" rx="3" ry="3" style="stroke:#038048;stroke-width:1;"/><text fill="#000000" font-family="sans-serif" font-size="14" lengthAdjust="spacing" textLength="192.876" x="27" y="196.292">behaviorLogs: List&lt;String&gt;</text><line style="stroke:#181818;stroke-width:0.5;" x1="8" x2="226.9609" y1="203.5938" y2="203.5938"/><ellipse cx="18" cy="217.2422" fill="#84BE84" rx="3" ry="3" style="stroke:#038048;stroke-width:1;"/><text fill="#000000" font-family="sans-serif" font-size="14" lengthAdjust="spacing" textLength="194.9609" x="27" y="220.5889">getBehavior(): List&lt;String&gt;</text></g><!--class Report--><g id="elem_Report"><rect codeLine="11" fill="#F1F1F1" height="80.5938" id="Report" rx="2.5" ry="2.5" style="stroke:#181818;stroke-width:0.5;" width="239.1582" x="263" y="139"/><ellipse cx="354.8101" cy="155" fill="#ADD1B2" rx="11" ry="11" style="stroke:#181818;stroke-width:1;"/><path d="M357.7788,160.6406 Q357.2007,160.9375 356.5601,161.0781 Q355.9194,161.2344 355.2163,161.2344 Q352.7163,161.2344 351.3882,159.5938 Q350.0757,157.9375 350.0757,154.8125 Q350.0757,151.6875 351.3882,150.0313 Q352.7163,148.375 355.2163,148.375 Q355.9194,148.375 356.5601,148.5313 Q357.2163,148.6875 357.7788,148.9844 L357.7788,151.7031 Q357.1538,151.125 356.5601,150.8594 Q355.9663,150.5781 355.3413,150.5781 Q353.9976,150.5781 353.3101,151.6563 Q352.6226,152.7188 352.6226,154.8125 Q352.6226,156.9063 353.3101,157.9844 Q353.9976,159.0469 355.3413,159.0469 Q355.9663,159.0469 356.5601,158.7813 Q357.1538,158.5 357.7788,157.9219 L357.7788,160.6406 Z " fill="#000000"/><text fill="#000000" font-family="sans-serif" font-size="14" lengthAdjust="spacing" textLength="47.0381" x="375.3101" y="159.8467">Report</text><line style="stroke:#181818;stroke-width:0.5;" x1="264" x2="501.1582" y1="171" y2="171"/><ellipse cx="274" cy="184.6484" fill="none" rx="3" ry="3" style="stroke:#038048;stroke-width:1;"/><text fill="#000000" font-family="sans-serif" font-size="14" lengthAdjust="spacing" textLength="141.7979" x="283" y="187.9951">isMalicious: Boolean</text><ellipse cx="274" cy="200.9453" fill="none" rx="3" ry="3" style="stroke:#038048;stroke-width:1;"/><text fill="#000000" font-family="sans-serif" font-size="14" lengthAdjust="spacing" textLength="213.1582" x="283" y="204.292">threatsDetected: List&lt;String&gt;</text><line style="stroke:#181818;stroke-width:0.5;" x1="264" x2="501.1582" y1="211.5938" y2="211.5938"/></g><!--class Rule--><g id="elem_Rule"><rect codeLine="16" fill="#F1F1F1" height="80.5938" id="Rule" rx="2.5" ry="2.5" style="stroke:#181818;stroke-width:0.5;" width="216.7295" x="537" y="139"/><ellipse cx="625.563" cy="155" fill="#ADD1B2" rx="11" ry="11" style="stroke:#181818;stroke-width:1;"/><path d="M628.5317,160.6406 Q627.9536,160.9375 627.313,161.0781 Q626.6724,161.2344 625.9692,161.2344 Q623.4692,161.2344 622.1411,159.5938 Q620.8286,157.9375 620.8286,154.8125 Q620.8286,151.6875 622.1411,150.0313 Q623.4692,148.375 625.9692,148.375 Q626.6724,148.375 627.313,148.5313 Q627.9692,148.6875 628.5317,148.9844 L628.5317,151.7031 Q627.9067,151.125 627.313,150.8594 Q626.7192,150.5781 626.0942,150.5781 Q624.7505,150.5781 624.063,151.6563 Q623.3755,152.7188 623.3755,154.8125 Q623.3755,156.9063 624.063,157.9844 Q624.7505,159.0469 626.0942,159.0469 Q626.7192,159.0469 627.313,158.7813 Q627.9067,158.5 628.5317,157.9219 L628.5317,160.6406 Z " fill="#000000"/><text fill="#000000" font-family="sans-serif" font-size="14" lengthAdjust="spacing" textLength="31.1035" x="646.063" y="159.8467">Rule</text><line style="stroke:#181818;stroke-width:0.5;" x1="538" x2="752.7295" y1="171" y2="171"/><ellipse cx="548" cy="184.6484" fill="none" rx="3" ry="3" style="stroke:#038048;stroke-width:1;"/><text fill="#000000" font-family="sans-serif" font-size="14" lengthAdjust="spacing" textLength="128.7891" x="557" y="187.9951">description: String</text><line style="stroke:#181818;stroke-width:0.5;" x1="538" x2="752.7295" y1="195.2969" y2="195.2969"/><ellipse cx="548" cy="208.9453" fill="#84BE84" rx="3" ry="3" style="stroke:#038048;stroke-width:1;"/><text fill="#000000" font-family="sans-serif" font-size="14" lengthAdjust="spacing" textLength="190.7295" x="557" y="212.292">check(Program p): Boolean</text></g><!--class SignatureBasedRule--><g id="elem_SignatureBasedRule"><rect codeLine="21" fill="#F1F1F1" height="80.5938" id="SignatureBasedRule" rx="2.5" ry="2.5" style="stroke:#181818;stroke-width:0.5;" width="216.7295" x="404" y="288"/><ellipse cx="438.2608" cy="304" fill="#ADD1B2" rx="11" ry="11" style="stroke:#181818;stroke-width:1;"/><path d="M441.2295,309.6406 Q440.6514,309.9375 440.0108,310.0781 Q439.3702,310.2344 438.667,310.2344 Q436.167,310.2344 434.8389,308.5938 Q433.5264,306.9375 433.5264,303.8125 Q433.5264,300.6875 434.8389,299.0313 Q436.167,297.375 438.667,297.375 Q439.3702,297.375 440.0108,297.5313 Q440.667,297.6875 441.2295,297.9844 L441.2295,300.7031 Q440.6045,300.125 440.0108,299.8594 Q439.417,299.5781 438.792,299.5781 Q437.4483,299.5781 436.7608,300.6563 Q436.0733,301.7188 436.0733,303.8125 Q436.0733,305.9063 436.7608,306.9844 Q437.4483,308.0469 438.792,308.0469 Q439.417,308.0469 440.0108,307.7813 Q440.6045,307.5 441.2295,306.9219 L441.2295,309.6406 Z " fill="#000000"/><text fill="#000000" font-family="sans-serif" font-size="14" lengthAdjust="spacing" textLength="141.9277" x="456.541" y="308.8467">SignatureBasedRule</text><line style="stroke:#181818;stroke-width:0.5;" x1="405" x2="619.7295" y1="320" y2="320"/><ellipse cx="415" cy="333.6484" fill="none" rx="3" ry="3" style="stroke:#038048;stroke-width:1;"/><text fill="#000000" font-family="sans-serif" font-size="14" lengthAdjust="spacing" textLength="172.4297" x="424" y="336.9951">signatures: List&lt;String&gt;</text><line style="stroke:#181818;stroke-width:0.5;" x1="405" x2="619.7295" y1="344.2969" y2="344.2969"/><ellipse cx="415" cy="357.9453" fill="#84BE84" rx="3" ry="3" style="stroke:#038048;stroke-width:1;"/><text fill="#000000" font-family="sans-serif" font-size="14" lengthAdjust="spacing" textLength="190.7295" x="424" y="361.292">check(Program p): Boolean</text></g><!--class BehaviorBasedRule--><g id="elem_BehaviorBasedRule"><rect codeLine="26" fill="#F1F1F1" height="80.5938" id="BehaviorBasedRule" rx="2.5" ry="2.5" style="stroke:#181818;stroke-width:0.5;" width="244.8662" x="656" y="288"/><ellipse cx="706.0596" cy="304" fill="#ADD1B2" rx="11" ry="11" style="stroke:#181818;stroke-width:1;"/><path d="M709.0283,309.6406 Q708.4502,309.9375 707.8096,310.0781 Q707.1689,310.2344 706.4658,310.2344 Q703.9658,310.2344 702.6377,308.5938 Q701.3252,306.9375 701.3252,303.8125 Q701.3252,300.6875 702.6377,299.0313 Q703.9658,297.375 706.4658,297.375 Q707.1689,297.375 707.8096,297.5313 Q708.4658,297.6875 709.0283,297.9844 L709.0283,300.7031 Q708.4033,300.125 707.8096,299.8594 Q707.2158,299.5781 706.5908,299.5781 Q705.2471,299.5781 704.5596,300.6563 Q703.8721,301.7188 703.8721,303.8125 Q703.8721,305.9063 704.5596,306.9844 Q705.2471,308.0469 706.5908,308.0469 Q707.2158,308.0469 707.8096,307.7813 Q708.4033,307.5 709.0283,306.9219 L709.0283,309.6406 Z " fill="#000000"/><text fill="#000000" font-family="sans-serif" font-size="14" lengthAdjust="spacing" textLength="136.2471" x="726.5596" y="308.8467">BehaviorBasedRule</text><line style="stroke:#181818;stroke-width:0.5;" x1="657" x2="899.8662" y1="320" y2="320"/><ellipse cx="667" cy="333.6484" fill="none" rx="3" ry="3" style="stroke:#038048;stroke-width:1;"/><text fill="#000000" font-family="sans-serif" font-size="14" lengthAdjust="spacing" textLength="218.8662" x="676" y="336.9951">behaviorPatterns: List&lt;String&gt;</text><line style="stroke:#181818;stroke-width:0.5;" x1="657" x2="899.8662" y1="344.2969" y2="344.2969"/><ellipse cx="667" cy="357.9453" fill="#84BE84" rx="3" ry="3" style="stroke:#038048;stroke-width:1;"/><text fill="#000000" font-family="sans-serif" font-size="14" lengthAdjust="spacing" textLength="190.7295" x="676" y="361.292">check(Program p): Boolean</text></g><!--link Analyzer to Program--><g id="link_Analyzer_Program"><path codeLine="31" d="M323.03,71.08 C289.3,88.71 251.7171,108.35 213.8471,128.15 " fill="none" id="Analyzer-to-Program" style="stroke:#181818;stroke-width:1;"/><polygon fill="#181818" points="208.53,130.93,218.359,130.3047,212.9609,128.6133,214.6523,123.2153,208.53,130.93" style="stroke:#181818;stroke-width:1;"/></g><!--link Analyzer to Report--><g id="link_Analyzer_Report"><path codeLine="32" d="M382.5,71.08 C382.5,91.1 382.5,111.31 382.5,132.82 " fill="none" id="Analyzer-to-Report" style="stroke:#181818;stroke-width:1;"/><polygon fill="#181818" points="382.5,138.82,386.5,129.82,382.5,133.82,378.5,129.82,382.5,138.82" style="stroke:#181818;stroke-width:1;"/></g><!--link Analyzer to Rule--><g id="link_Analyzer_Rule"><path codeLine="33" d="M441.52,71.08 C479.54,91.1 523.9907,114.515 564.8507,136.025 " fill="none" id="Analyzer-to-Rule" style="stroke:#181818;stroke-width:1;"/><polygon fill="#181818" points="570.16,138.82,564.0594,131.0881,565.7356,136.4909,560.3328,138.1671,570.16,138.82" style="stroke:#181818;stroke-width:1;"/></g><!--reverse link Rule to SignatureBasedRule--><g id="link_Rule_SignatureBasedRule"><path codeLine="34" d="M597.4336,233.6276 C578.4336,254.6276 567.26,266.97 548.29,287.94 " fill="none" id="Rule-backto-SignatureBasedRule" style="stroke:#181818;stroke-width:1;"/><polygon fill="none" points="609.51,220.28,592.9843,229.6022,601.8828,237.6531,609.51,220.28" style="stroke:#181818;stroke-width:1;"/></g><!--reverse link Rule to BehaviorBasedRule--><g id="link_Rule_BehaviorBasedRule"><path codeLine="35" d="M693.5664,233.6276 C712.5664,254.6276 723.74,266.97 742.71,287.94 " fill="none" id="Rule-backto-BehaviorBasedRule" style="stroke:#181818;stroke-width:1;"/><polygon fill="none" points="681.49,220.28,689.1172,237.6531,698.0157,229.6022,681.49,220.28" style="stroke:#181818;stroke-width:1;"/></g><!--SRC=[dL7HQiCm37ptL_YnfUG7GYaqxB63idw1vWZ7pBM3f0osjV_UqDYcQJiOq-ETT7UIZ0TclGtWlxwHz8_IOwqqJC1YJz4I77M_hFKRzf54dPKorw7CvPa0HwprGSW5cw1txE3JHTf5oxNUEPRrn6zIWqLfKizYUTTHZ2RZukFu5RmpBWwZPXEZHmY9aeuGX5zGq0YslmeE7ejSYsp8zU9Yk4jlEZGVinDajw9qS3Q038GDCBOpNSxKyyt_89ulywYTxxe74QJm3uVoyQhQv4_EmVJkEJQ6KDSawrDLFTd-Xdn8Vm40]--></g></svg>